<svg width="61" height="67" viewBox="0 0 61 67" fill="none" xmlns="http://www.w3.org/2000/svg">
<path d="M57.6663 16.2087L57.7025 16.1725L44.2175 2.6875L40.375 6.53L48.0238 14.1788C44.6163 15.4838 42.1875 18.7463 42.1875 22.625C42.1875 23.8151 42.4219 24.9936 42.8773 26.0931C43.3328 27.1926 44.0003 28.1916 44.8418 29.0332C46.5414 30.7327 48.8465 31.6875 51.25 31.6875C52.555 31.6875 53.7513 31.3975 54.875 30.9263V57.0625C54.875 58.0239 54.4931 58.9459 53.8133 59.6258C53.1334 60.3056 52.2114 60.6875 51.25 60.6875C50.2886 60.6875 49.3666 60.3056 48.6867 59.6258C48.0069 58.9459 47.625 58.0239 47.625 57.0625V40.75C47.625 38.8272 46.8612 36.9831 45.5015 35.6235C44.1419 34.2638 42.2978 33.5 40.375 33.5H36.75V8.125C36.75 6.20218 35.9862 4.35811 34.6265 2.99848C33.2669 1.63884 31.4228 0.875 29.5 0.875H7.75C5.82718 0.875 3.98311 1.63884 2.62348 2.99848C1.26384 4.35811 0.5 6.20218 0.5 8.125V66.125H36.75V38.9375H42.1875V57.0625C42.1875 59.466 43.1423 61.7711 44.8418 63.4707C46.5414 65.1702 48.8465 66.125 51.25 66.125C52.4401 66.125 53.6186 65.8906 54.7181 65.4352C55.8176 64.9797 56.8166 64.3122 57.6582 63.4707C58.4997 62.6291 59.1672 61.6301 59.6227 60.5306C60.0781 59.4311 60.3125 58.2526 60.3125 57.0625V22.625C60.3125 20.1238 59.2975 17.84 57.6663 16.2087ZM51.25 26.25C50.2886 26.25 49.3666 25.8681 48.6867 25.1883C48.0069 24.5084 47.625 23.5864 47.625 22.625C47.625 21.6636 48.0069 20.7416 48.6867 20.0617C49.3666 19.3819 50.2886 19 51.25 19C52.2114 19 53.1334 19.3819 53.8133 20.0617C54.4931 20.7416 54.875 21.6636 54.875 22.625C54.875 23.5864 54.4931 24.5084 53.8133 25.1883C53.1334 25.8681 52.2114 26.25 51.25 26.25ZM15 55.25V38.9375H7.75L22.25 11.75V29.875H29.5L15 55.25Z" fill="#A6A3FF"/>
</svg>
