<svg width="338" height="85" viewBox="0 0 338 85" fill="none" xmlns="http://www.w3.org/2000/svg">
<g clip-path="url(#clip0_1225_21)">
<rect width="60.8631" height="60.8631" rx="10.9059" transform="matrix(0.866044 -0.499967 0.866044 0.499967 0.275848 54.3563)" fill="#4F4DAA"/>
<rect width="60.8631" height="60.8631" rx="10.9059" transform="matrix(0.866044 -0.499967 0.866044 0.499967 0.275848 30.6176)" fill="#706CFF"/>
</g>
<path d="M155.823 8.61865C160.135 8.61865 164.055 9.65462 167.583 11.7266C171.167 13.7425 173.967 16.5424 175.983 20.1264C177.999 23.6543 179.007 27.6022 179.007 31.9701C179.007 36.3379 178.055 40.3138 176.151 43.8977C174.303 47.4257 171.727 50.1976 168.423 52.2135C165.175 54.2295 161.535 55.2375 157.503 55.2375C154.255 55.2375 151.232 54.5655 148.432 53.2215C145.632 51.8775 143.252 50.0016 141.292 47.5937V70.2731C141.292 71.561 140.9 72.597 140.116 73.381C139.332 74.165 138.296 74.557 137.008 74.557C135.776 74.557 134.74 74.165 133.9 73.381C133.116 72.597 132.724 71.561 132.724 70.2731V31.9701C132.724 27.6022 133.732 23.6543 135.748 20.1264C137.82 16.5424 140.592 13.7425 144.064 11.7266C147.592 9.65462 151.512 8.61865 155.823 8.61865ZM155.823 47.6777C158.623 47.6777 161.143 47.0057 163.383 45.6617C165.679 44.2617 167.471 42.3858 168.759 40.0338C170.103 37.6259 170.775 34.938 170.775 31.9701C170.775 29.0021 170.103 26.3142 168.759 23.9063C167.471 21.4983 165.679 19.6224 163.383 18.2784C161.143 16.8784 158.623 16.1785 155.823 16.1785C153.023 16.1785 150.476 16.8784 148.18 18.2784C145.94 19.6224 144.176 21.4983 142.888 23.9063C141.6 26.3142 140.956 29.0021 140.956 31.9701C140.956 34.938 141.6 37.6259 142.888 40.0338C144.176 42.3858 145.94 44.2617 148.18 45.6617C150.476 47.0057 153.023 47.6777 155.823 47.6777Z" fill="white"/>
<path d="M228.945 31.2142C228.945 32.2782 228.581 33.1741 227.853 33.9021C227.125 34.5741 226.201 34.9101 225.081 34.9101H193.162C193.778 38.83 195.542 41.9939 198.453 44.4019C201.421 46.8098 205.033 48.0138 209.289 48.0138C210.969 48.0138 212.705 47.7058 214.497 47.0898C216.345 46.4738 217.857 45.7178 219.033 44.8218C219.817 44.2059 220.741 43.8979 221.805 43.8979C222.869 43.8979 223.709 44.1779 224.325 44.7378C225.333 45.5778 225.837 46.5298 225.837 47.5938C225.837 48.6017 225.389 49.4417 224.493 50.1137C222.589 51.6257 220.209 52.8576 217.353 53.8096C214.553 54.7616 211.865 55.2376 209.289 55.2376C204.697 55.2376 200.581 54.2576 196.942 52.2977C193.302 50.2817 190.446 47.5098 188.374 43.9819C186.358 40.454 185.35 36.4501 185.35 31.9702C185.35 27.4903 186.302 23.4864 188.206 19.9585C190.166 16.3746 192.854 13.6026 196.27 11.6427C199.741 9.62675 203.661 8.61877 208.029 8.61877C212.341 8.61877 216.065 9.57075 219.201 11.4747C222.337 13.3786 224.745 16.0386 226.425 19.4545C228.105 22.8704 228.945 26.7903 228.945 31.2142ZM208.029 15.8426C203.941 15.8426 200.609 16.9626 198.033 19.2025C195.514 21.4424 193.918 24.4384 193.246 28.1903H221.217C220.713 24.4384 219.313 21.4424 217.017 19.2025C214.721 16.9626 211.725 15.8426 208.029 15.8426Z" fill="white"/>
<path d="M235.926 32.6421C235.926 31.5782 236.29 30.6822 237.018 29.9542C237.746 29.2822 238.67 28.9462 239.79 28.9462H271.709C271.093 25.0263 269.33 21.8624 266.418 19.4545C263.45 17.0465 259.838 15.8426 255.582 15.8426C253.902 15.8426 252.166 16.1506 250.374 16.7665C248.526 17.3825 247.014 18.1385 245.838 19.0345C245.054 19.6505 244.13 19.9585 243.066 19.9585C242.002 19.9585 241.162 19.6785 240.546 19.1185C239.538 18.2785 239.034 17.3265 239.034 16.2626C239.034 15.2546 239.482 14.4146 240.378 13.7426C242.282 12.2307 244.662 10.9987 247.518 10.0467C250.318 9.09474 253.006 8.61875 255.582 8.61875C260.174 8.61875 264.29 9.59872 267.93 11.5587C271.569 13.5746 274.425 16.3466 276.497 19.8745C278.513 23.4024 279.521 27.4063 279.521 31.8862C279.521 36.366 278.569 40.3699 276.665 43.8978C274.705 47.4818 272.017 50.2537 268.602 52.2136C265.13 54.2296 261.21 55.2375 256.842 55.2375C252.53 55.2375 248.806 54.2856 245.67 52.3816C242.534 50.4777 240.126 47.8177 238.446 44.4018C236.766 40.9859 235.926 37.066 235.926 32.6421ZM256.842 48.0137C260.93 48.0137 264.262 46.8938 266.838 44.6538C269.358 42.4139 270.953 39.418 271.625 35.6661H243.654C244.158 39.418 245.558 42.4139 247.854 44.6538C250.15 46.8938 253.146 48.0137 256.842 48.0137Z" fill="white"/>
<path d="M308.245 8.61877C312.556 8.61877 316.448 9.65475 319.92 11.7267C323.448 13.7426 326.22 16.5426 328.236 20.1265C330.308 23.6544 331.344 27.6023 331.344 31.9702V70.2732C331.344 71.5612 330.952 72.5971 330.168 73.3811C329.384 74.1651 328.348 74.5571 327.06 74.5571C325.828 74.5571 324.792 74.1651 323.952 73.3811C323.168 72.5971 322.776 71.5612 322.776 70.2732V47.5938C320.816 50.0017 318.436 51.8777 315.636 53.2216C312.836 54.5656 309.812 55.2376 306.565 55.2376C302.533 55.2376 298.865 54.2296 295.561 52.2137C292.313 50.1977 289.737 47.4258 287.833 43.8979C285.985 40.314 285.061 36.3381 285.061 31.9702C285.061 27.6023 286.069 23.6544 288.085 20.1265C290.101 16.5426 292.873 13.7426 296.401 11.7267C299.985 9.65475 303.933 8.61877 308.245 8.61877ZM308.245 47.6778C311.044 47.6778 313.564 47.0058 315.804 45.6618C318.1 44.2619 319.892 42.3859 321.18 40.034C322.468 37.626 323.112 34.9381 323.112 31.9702C323.112 29.0022 322.468 26.3143 321.18 23.9064C319.892 21.4984 318.1 19.6225 315.804 18.2785C313.564 16.8786 311.044 16.1786 308.245 16.1786C305.445 16.1786 302.897 16.8786 300.601 18.2785C298.361 19.6225 296.569 21.4984 295.225 23.9064C293.937 26.3143 293.293 29.0022 293.293 31.9702C293.293 34.9381 293.937 37.626 295.225 40.034C296.569 42.3859 298.361 44.2619 300.601 45.6618C302.897 47.0058 305.445 47.6778 308.245 47.6778Z" fill="white"/>
<defs>
<clipPath id="clip0_1225_21">
<rect width="105.42" height="84.5979" fill="white" transform="translate(0.275391 0.188477)"/>
</clipPath>
</defs>
</svg>
